<?xml version="1.0"?>
<svg xmlns="http://www.w3.org/2000/svg" xmlns:xlink="http://www.w3.org/1999/xlink" xmlns:svgjs="http://svgjs.com/svgjs" version="1.1" width="512" height="512" x="0" y="0" viewBox="0 0 512 512.001" style="enable-background:new 0 0 512 512" xml:space="preserve"><g><path xmlns="http://www.w3.org/2000/svg" d="m401.769531 319.734375v-253.648437c0-36.441407-29.648437-66.085938-66.085937-66.085938-36.441406 0-66.085938 29.644531-66.085938 66.085938v253.648437c-26.070312 20.316406-41.402344 51.429687-41.402344 84.777344 0 59.269531 48.21875 107.488281 107.488282 107.488281 59.269531 0 107.488281-48.21875 107.488281-107.488281 0-33.347657-15.335937-64.460938-41.402344-84.777344zm-66.085937 162.140625c-42.660156 0-77.367188-34.707031-77.367188-77.363281 0-26.003907 12.960938-50.121094 34.667969-64.519531l6.738281-4.46875v-269.4375c0-19.828126 16.128906-35.960938 35.960938-35.960938 19.828125 0 35.960937 16.128906 35.960937 35.960938v269.4375l6.734375 4.46875c21.707032 14.398437 34.667969 38.515624 34.667969 64.519531 0 42.65625-34.703125 77.363281-77.363281 77.363281zm0 0" fill="#ffffff" data-original="#000000" style=""/><path xmlns="http://www.w3.org/2000/svg" d="m350.746094 353.621094v-84.074219c0-8.316406-6.746094-15.0625-15.0625-15.0625-8.320313 0-15.0625 6.746094-15.0625 15.0625v84.074219c-22.21875 6.523437-38.492188 27.082031-38.492188 51.382812 0 29.53125 24.023438 53.554688 53.554688 53.554688s53.554687-24.023438 53.554687-53.554688c0-24.300781-16.273437-44.855468-38.492187-51.382812zm-15.0625 74.8125c-12.917969 0-23.429688-10.507813-23.429688-23.429688 0-12.917968 10.511719-23.429687 23.429688-23.429687 12.917968 0 23.429687 10.511719 23.429687 23.429687 0 12.921875-10.511719 23.429688-23.429687 23.429688zm0 0" fill="#ffffff" data-original="#000000" style=""/><path xmlns="http://www.w3.org/2000/svg" d="m424.082031 53.644531h82.839844v30.121094h-82.839844zm0 0" fill="#ffffff" data-original="#000000" style=""/><path xmlns="http://www.w3.org/2000/svg" d="m424.082031 120.890625h56.480469v30.125h-56.480469zm0 0" fill="#ffffff" data-original="#000000" style=""/><path xmlns="http://www.w3.org/2000/svg" d="m424.082031 188.140625h82.839844v30.121094h-82.839844zm0 0" fill="#ffffff" data-original="#000000" style=""/><path xmlns="http://www.w3.org/2000/svg" d="m424.082031 255.386719h56.480469v30.125h-56.480469zm0 0" fill="#ffffff" data-original="#000000" style=""/><path xmlns="http://www.w3.org/2000/svg" d="m237.734375 248.519531 15.0625-26.085937-26.953125-15.5625 18.019531-7.042969-10.96875-28.058594-40.453125 15.816407-26.320312-15.195313c.25-1.8125.390625-3.660156.390625-5.542969 0-1.878906-.140625-3.726562-.390625-5.539062l26.320312-15.195313 40.453125 15.816407 10.96875-28.054688-18.019531-7.046875 26.953125-15.5625-15.0625-26.085937-26.953125 15.558593 2.90625-19.128906-29.78125-4.527344-6.527344 42.941407-26.339844 15.207031c-2.902343-2.265625-6.117187-4.144531-9.578124-5.550781v-30.394532l33.921874-27.125-18.808593-23.527344-15.113281 12.082032v-31.121094h-30.125v31.121094l-15.113282-12.082032-18.8125 23.527344 33.925782 27.125v30.394532c-3.460938 1.40625-6.675782 3.28125-9.578126 5.550781l-26.339843-15.207031-6.527344-42.941407-29.78125 4.527344 2.90625 19.128906-26.953125-15.5625-15.0625 26.089844 26.953125 15.558594-18.019531 7.046875 10.96875 28.058594 40.453125-15.820313 26.320312 15.195313c-.253906 1.8125-.390625 3.664062-.390625 5.542968 0 1.882813.140625 3.730469.390625 5.542969l-26.320312 15.195313-40.453125-15.816407-10.96875 28.054688 18.019531 7.046875-26.953125 15.5625 15.0625 26.085937 26.953125-15.5625-2.910156 19.132813 29.78125 4.527344 6.53125-42.941407 26.335937-15.207031c2.902344 2.265625 6.121094 4.144531 9.582032 5.550781v30.390625l-33.925782 27.125 18.8125 23.53125 15.109375-12.085937v31.121093h30.125v-31.121093l15.113281 12.082031 18.8125-23.527344-33.925781-27.125v-30.390625c3.460938-1.40625 6.679688-3.285156 9.582031-5.550781l26.339844 15.207031 6.527344 42.941407 29.78125-4.53125-2.90625-19.128907zm-101.34375-81.671875c0 5.511719-4.484375 9.992188-9.992187 9.992188-5.511719 0-9.992188-4.480469-9.992188-9.992188 0-5.507812 4.484375-9.988281 9.992188-9.988281 5.507812 0 9.992187 4.480469 9.992187 9.988281zm0 0" fill="#ffffff" data-original="#000000" style=""/></g></svg>
