<?xml version="1.0"?>
<svg xmlns="http://www.w3.org/2000/svg" xmlns:xlink="http://www.w3.org/1999/xlink" xmlns:svgjs="http://svgjs.com/svgjs" version="1.1" width="512" height="512" x="0" y="0" viewBox="0 0 512 512" style="enable-background:new 0 0 512 512" xml:space="preserve"><g><g xmlns="http://www.w3.org/2000/svg"><path d="m457.393 157.301c15.193 0 27.554-12.361 27.554-27.554v-62.391c0-15.193-12.361-27.554-27.554-27.554h-.771v-12.248c0-15.193-12.361-27.554-27.553-27.554h-346.137c-15.193 0-27.554 12.361-27.554 27.554v12.248h-.771c-15.193 0-27.554 12.361-27.554 27.554v62.391c0 15.193 12.361 27.554 27.554 27.554h.771v24.774h-.771c-15.193 0-27.554 12.361-27.554 27.554v62.391c0 15.193 12.361 27.554 27.554 27.554h.771v24.773h-.771c-15.193 0-27.554 12.361-27.554 27.554v62.391c0 15.193 12.361 27.554 27.554 27.554h.771v12.249c0 14.233 10.849 25.98 24.711 27.408v7.954c0 12.431 10.114 22.544 22.544 22.544h29.217c12.431 0 22.544-10.113 22.544-22.544v-7.807h203.211v7.807c0 12.431 10.113 22.544 22.544 22.544h29.217c12.431 0 22.544-10.113 22.544-22.544v-7.954c13.862-1.427 24.711-13.174 24.711-27.408v-12.249h.771c15.193 0 27.554-12.361 27.554-27.554v-62.391c0-15.193-12.361-27.554-27.554-27.554h-.771v-24.773h.771c15.193 0 27.554-12.361 27.554-27.554v-62.391c0-15.193-12.361-27.554-27.554-27.554h-.771v-24.774zm-415.311-27.553v-62.392c0-6.906 5.618-12.525 12.525-12.525h72.326c4.151 0 7.515-3.364 7.515-7.515s-3.364-7.515-7.515-7.515h-56.526v-12.247c0-6.906 5.618-12.524 12.525-12.524h346.137c6.906 0 12.524 5.618 12.524 12.524v12.248h-284.602c-4.151 0-7.515 3.364-7.515 7.515s3.364 7.515 7.515 7.515h300.402c6.906 0 12.524 5.618 12.524 12.525v62.391c0 6.906-5.618 12.524-12.524 12.524h-402.786c-6.906 0-12.525-5.618-12.525-12.524zm97.283 359.708c0 4.144-3.371 7.515-7.515 7.515h-29.217c-4.144 0-7.515-3.371-7.515-7.515v-7.807h44.247zm270.002 7.515h-29.217c-4.144 0-7.515-3.371-7.515-7.515v-7.807h44.247v7.807c0 4.144-3.371 7.515-7.515 7.515zm60.551-145.07v62.391c0 6.906-5.618 12.524-12.524 12.524h-243.733c-4.151 0-7.515 3.364-7.515 7.515s3.364 7.515 7.515 7.515h227.932v12.249c0 6.906-5.618 12.524-12.524 12.524h-346.137c-6.906 0-12.525-5.618-12.525-12.524v-12.249h113.195c4.151 0 7.515-3.364 7.515-7.515s-3.364-7.515-7.515-7.515h-128.995c-6.906 0-12.525-5.618-12.525-12.524v-62.391c0-6.906 5.618-12.525 12.525-12.525h402.787c6.905.001 12.524 5.619 12.524 12.525zm-28.325-27.554h-371.186v-24.773h371.186zm0-142.272h-147.914c-4.151 0-7.515 3.364-7.515 7.515s3.364 7.515 7.515 7.515h163.714c6.906 0 12.524 5.618 12.524 12.524v62.391c0 6.906-5.618 12.525-12.524 12.525h-402.786c-6.906 0-12.525-5.618-12.525-12.525v-62.391c0-6.906 5.618-12.524 12.525-12.524h209.013c4.151 0 7.515-3.364 7.515-7.515s-3.364-7.515-7.515-7.515h-193.213v-24.774h371.186z" fill="#ffffff" data-original="#000000" style=""/><path d="m85.294 121.503h24.006c4.151 0 7.515-3.364 7.515-7.515s-3.364-7.515-7.515-7.515h-24.006c-4.151 0-7.515 3.364-7.515 7.515s3.364 7.515 7.515 7.515z" fill="#ffffff" data-original="#000000" style=""/><path d="m141.962 121.503h24.007c4.151 0 7.515-3.364 7.515-7.515s-3.364-7.515-7.515-7.515h-24.007c-4.151 0-7.515 3.364-7.515 7.515s3.364 7.515 7.515 7.515z" fill="#ffffff" data-original="#000000" style=""/><path d="m198.631 121.503h24.006c4.151 0 7.515-3.364 7.515-7.515s-3.364-7.515-7.515-7.515h-24.006c-4.151 0-7.515 3.364-7.515 7.515s3.364 7.515 7.515 7.515z" fill="#ffffff" data-original="#000000" style=""/><path d="m85.294 90.631h24.006c4.151 0 7.515-3.364 7.515-7.515s-3.364-7.515-7.515-7.515h-24.006c-4.151 0-7.515 3.364-7.515 7.515s3.364 7.515 7.515 7.515z" fill="#ffffff" data-original="#000000" style=""/><path d="m141.962 90.631h24.007c4.151 0 7.515-3.364 7.515-7.515s-3.364-7.515-7.515-7.515h-24.007c-4.151 0-7.515 3.364-7.515 7.515s3.364 7.515 7.515 7.515z" fill="#ffffff" data-original="#000000" style=""/><path d="m198.631 90.631h24.006c4.151 0 7.515-3.364 7.515-7.515s-3.364-7.515-7.515-7.515h-24.006c-4.151 0-7.515 3.364-7.515 7.515s3.364 7.515 7.515 7.515z" fill="#ffffff" data-original="#000000" style=""/><path d="m400.867 124.833c14.491 0 26.28-11.79 26.28-26.281s-11.789-26.28-26.28-26.28-26.28 11.789-26.28 26.28 11.789 26.281 26.28 26.281zm0-37.532c6.204 0 11.25 5.047 11.25 11.251s-5.047 11.251-11.25 11.251c-6.204 0-11.251-5.047-11.251-11.251s5.047-11.251 11.251-11.251z" fill="#ffffff" data-original="#000000" style=""/><path d="m329.884 124.833c14.491 0 26.281-11.79 26.281-26.281s-11.79-26.28-26.281-26.28-26.28 11.789-26.28 26.28 11.789 26.281 26.28 26.281zm0-37.532c6.204 0 11.251 5.047 11.251 11.251s-5.047 11.251-11.251 11.251c-6.203 0-11.25-5.047-11.25-11.251s5.047-11.251 11.25-11.251z" fill="#ffffff" data-original="#000000" style=""/><path d="m109.299 248.746h-24.005c-4.151 0-7.515 3.364-7.515 7.515s3.364 7.515 7.515 7.515h24.006c4.151 0 7.515-3.364 7.515-7.515-.001-4.151-3.365-7.515-7.516-7.515z" fill="#ffffff" data-original="#000000" style=""/><path d="m165.969 248.746h-24.007c-4.151 0-7.515 3.364-7.515 7.515s3.364 7.515 7.515 7.515h24.007c4.151 0 7.515-3.364 7.515-7.515-.001-4.151-3.365-7.515-7.515-7.515z" fill="#ffffff" data-original="#000000" style=""/><path d="m222.637 248.746h-24.006c-4.151 0-7.515 3.364-7.515 7.515s3.364 7.515 7.515 7.515h24.006c4.151 0 7.515-3.364 7.515-7.515s-3.364-7.515-7.515-7.515z" fill="#ffffff" data-original="#000000" style=""/><path d="m109.299 217.874h-24.005c-4.151 0-7.515 3.364-7.515 7.515s3.364 7.515 7.515 7.515h24.006c4.151 0 7.515-3.364 7.515-7.515-.001-4.151-3.365-7.515-7.516-7.515z" fill="#ffffff" data-original="#000000" style=""/><path d="m165.969 217.874h-24.007c-4.151 0-7.515 3.364-7.515 7.515s3.364 7.515 7.515 7.515h24.007c4.151 0 7.515-3.364 7.515-7.515-.001-4.151-3.365-7.515-7.515-7.515z" fill="#ffffff" data-original="#000000" style=""/><path d="m222.637 217.874h-24.006c-4.151 0-7.515 3.364-7.515 7.515s3.364 7.515 7.515 7.515h24.006c4.151 0 7.515-3.364 7.515-7.515s-3.364-7.515-7.515-7.515z" fill="#ffffff" data-original="#000000" style=""/><path d="m400.867 267.105c14.491 0 26.28-11.789 26.28-26.28s-11.789-26.28-26.28-26.28-26.28 11.789-26.28 26.28 11.789 26.28 26.28 26.28zm0-37.531c6.204 0 11.25 5.047 11.25 11.251 0 6.203-5.047 11.25-11.25 11.25-6.204 0-11.251-5.047-11.251-11.25 0-6.204 5.047-11.251 11.251-11.251z" fill="#ffffff" data-original="#000000" style=""/><path d="m329.884 267.105c14.491 0 26.281-11.789 26.281-26.28s-11.79-26.28-26.281-26.28-26.28 11.789-26.28 26.28c.001 14.491 11.789 26.28 26.28 26.28zm0-37.531c6.204 0 11.251 5.047 11.251 11.251 0 6.203-5.047 11.25-11.251 11.25-6.203 0-11.25-5.047-11.25-11.25 0-6.204 5.047-11.251 11.25-11.251z" fill="#ffffff" data-original="#000000" style=""/><path d="m109.299 391.019h-24.005c-4.151 0-7.515 3.364-7.515 7.515s3.364 7.515 7.515 7.515h24.006c4.151 0 7.515-3.364 7.515-7.515s-3.365-7.515-7.516-7.515z" fill="#ffffff" data-original="#000000" style=""/><path d="m165.969 391.019h-24.007c-4.151 0-7.515 3.364-7.515 7.515s3.364 7.515 7.515 7.515h24.007c4.151 0 7.515-3.364 7.515-7.515s-3.365-7.515-7.515-7.515z" fill="#ffffff" data-original="#000000" style=""/><path d="m222.637 391.019h-24.006c-4.151 0-7.515 3.364-7.515 7.515s3.364 7.515 7.515 7.515h24.006c4.151 0 7.515-3.364 7.515-7.515s-3.364-7.515-7.515-7.515z" fill="#ffffff" data-original="#000000" style=""/><path d="m109.299 360.146h-24.005c-4.151 0-7.515 3.364-7.515 7.515s3.364 7.515 7.515 7.515h24.006c4.151 0 7.515-3.364 7.515-7.515s-3.365-7.515-7.516-7.515z" fill="#ffffff" data-original="#000000" style=""/><path d="m165.969 360.146h-24.007c-4.151 0-7.515 3.364-7.515 7.515s3.364 7.515 7.515 7.515h24.007c4.151 0 7.515-3.364 7.515-7.515s-3.365-7.515-7.515-7.515z" fill="#ffffff" data-original="#000000" style=""/><path d="m222.637 360.146h-24.006c-4.151 0-7.515 3.364-7.515 7.515s3.364 7.515 7.515 7.515h24.006c4.151 0 7.515-3.364 7.515-7.515s-3.364-7.515-7.515-7.515z" fill="#ffffff" data-original="#000000" style=""/><path d="m400.867 356.817c-14.491 0-26.28 11.789-26.28 26.28s11.789 26.28 26.28 26.28 26.28-11.789 26.28-26.28-11.789-26.28-26.28-26.28zm0 37.53c-6.204 0-11.251-5.047-11.251-11.251s5.047-11.25 11.251-11.25 11.25 5.047 11.25 11.25c0 6.204-5.047 11.251-11.25 11.251z" fill="#ffffff" data-original="#000000" style=""/><path d="m329.884 356.817c-14.491 0-26.28 11.789-26.28 26.28s11.789 26.28 26.28 26.28 26.281-11.789 26.281-26.28-11.789-26.28-26.281-26.28zm0 37.53c-6.203 0-11.25-5.047-11.25-11.251s5.047-11.25 11.25-11.25c6.204 0 11.251 5.047 11.251 11.25.001 6.204-5.046 11.251-11.251 11.251z" fill="#ffffff" data-original="#000000" style=""/></g></g></svg>
